<svg id="visual" viewBox="0 0 960 540" width="960" height="540" xmlns="http://www.w3.org/2000/svg" xmlns:xlink="http://www.w3.org/1999/xlink" version="1.1"><g stroke-width="1" stroke-linejoin="bevel"><path d="M514 288L520.6 304.5L556.6 305Z" fill="#401966" stroke="#401966"></path><path d="M586.1 370.5L586.1 309L556.6 305Z" fill="#55207f" stroke="#55207f"></path><path d="M556.6 305L584.6 220.5L514 288Z" fill="#16002a" stroke="#16002a"></path><path d="M432.4 296.5L524 345.5L520.6 304.5Z" fill="#7929a6" stroke="#7929a6"></path><path d="M520.6 304.5L524 345.5L556.6 305Z" fill="#7929a6" stroke="#7929a6"></path><path d="M586.1 309L584.6 220.5L556.6 305Z" fill="#2c114d" stroke="#2c114d"></path><path d="M524 345.5L586.1 370.5L556.6 305Z" fill="#401966" stroke="#401966"></path><path d="M428.4 295L432.4 296.5L443 167Z" fill="#6d2699" stroke="#6d2699"></path><path d="M514 288L432.4 296.5L520.6 304.5Z" fill="#36155a" stroke="#36155a"></path><path d="M443 167L432.4 296.5L514 288Z" fill="#16002a" stroke="#16002a"></path><path d="M491 448.5L565.6 446L524 345.5Z" fill="#6d2699" stroke="#6d2699"></path><path d="M586.1 370.5L654.7 306L586.1 309Z" fill="#1b0935" stroke="#1b0935"></path><path d="M586.1 309L654.7 306L584.6 220.5Z" fill="#55207f" stroke="#55207f"></path><path d="M565.6 446L610.1 390L586.1 370.5Z" fill="#36155a" stroke="#36155a"></path><path d="M586.1 370.5L670.7 360L654.7 306Z" fill="#2c114d" stroke="#2c114d"></path><path d="M584.6 220.5L517 164.5L514 288Z" fill="#7929a6" stroke="#7929a6"></path><path d="M606.1 163.5L541.6 152L584.6 220.5Z" fill="#55207f" stroke="#55207f"></path><path d="M584.6 220.5L541.6 152L517 164.5Z" fill="#16002a" stroke="#16002a"></path><path d="M673.7 157.5L606.1 163.5L584.6 220.5Z" fill="#16002a" stroke="#16002a"></path><path d="M610.1 390L670.7 360L586.1 370.5Z" fill="#401966" stroke="#401966"></path><path d="M670.7 360L690.7 304.5L654.7 306Z" fill="#16002a" stroke="#16002a"></path><path d="M654.7 306L673.7 157.5L584.6 220.5Z" fill="#401966" stroke="#401966"></path><path d="M419.4 121L443 167L517 164.5Z" fill="#55207f" stroke="#55207f"></path><path d="M517 164.5L443 167L514 288Z" fill="#230e41" stroke="#230e41"></path><path d="M485 445L524 345.5L385.4 362Z" fill="#4a1c73" stroke="#4a1c73"></path><path d="M524 345.5L565.6 446L586.1 370.5Z" fill="#401966" stroke="#401966"></path><path d="M610.1 390L613.1 471.5L670.7 360Z" fill="#36155a" stroke="#36155a"></path><path d="M385.4 362L524 345.5L432.4 296.5Z" fill="#16002a" stroke="#16002a"></path><path d="M485 445L491 448.5L524 345.5Z" fill="#401966" stroke="#401966"></path><path d="M321.9 239L385.4 362L428.4 295Z" fill="#6d2699" stroke="#6d2699"></path><path d="M428.4 295L385.4 362L432.4 296.5Z" fill="#55207f" stroke="#55207f"></path><path d="M673.7 157.5L630.1 137L606.1 163.5Z" fill="#1b0935" stroke="#1b0935"></path><path d="M606.1 163.5L561.6 88.5L541.6 152Z" fill="#230e41" stroke="#230e41"></path><path d="M541.6 152L561.6 88.5L517 164.5Z" fill="#61238c" stroke="#61238c"></path><path d="M385.4 362L383.9 377L485 445Z" fill="#2c114d" stroke="#2c114d"></path><path d="M690.7 304.5L673.7 157.5L654.7 306Z" fill="#1b0935" stroke="#1b0935"></path><path d="M582.6 540L592.6 478.5L492 540Z" fill="#401966" stroke="#401966"></path><path d="M565.6 446L613.1 471.5L610.1 390Z" fill="#61238c" stroke="#61238c"></path><path d="M592.6 478.5L613.1 471.5L565.6 446Z" fill="#6d2699" stroke="#6d2699"></path><path d="M605.1 39.5L561.6 88.5L630.1 137Z" fill="#7929a6" stroke="#7929a6"></path><path d="M630.1 137L561.6 88.5L606.1 163.5Z" fill="#36155a" stroke="#36155a"></path><path d="M517 39.5L419.4 121L517 164.5Z" fill="#36155a" stroke="#36155a"></path><path d="M443 167L370.4 163.5L428.4 295Z" fill="#1b0935" stroke="#1b0935"></path><path d="M419.4 121L370.4 163.5L443 167Z" fill="#36155a" stroke="#36155a"></path><path d="M385.4 362L301.9 368.5L383.9 377Z" fill="#2c114d" stroke="#2c114d"></path><path d="M370.4 163.5L321.9 239L428.4 295Z" fill="#4a1c73" stroke="#4a1c73"></path><path d="M751.3 182.5L722.7 156L673.7 157.5Z" fill="#230e41" stroke="#230e41"></path><path d="M673.7 157.5L717.3 126L630.1 137Z" fill="#7929a6" stroke="#7929a6"></path><path d="M772.3 243L751.3 182.5L690.7 304.5Z" fill="#6d2699" stroke="#6d2699"></path><path d="M690.7 304.5L751.3 182.5L673.7 157.5Z" fill="#7929a6" stroke="#7929a6"></path><path d="M800.9 301L772.3 243L690.7 304.5Z" fill="#36155a" stroke="#36155a"></path><path d="M783.3 364L690.7 304.5L670.7 360Z" fill="#7929a6" stroke="#7929a6"></path><path d="M786.9 183.5L717.3 126L722.7 156Z" fill="#16002a" stroke="#16002a"></path><path d="M722.7 156L717.3 126L673.7 157.5Z" fill="#16002a" stroke="#16002a"></path><path d="M605.1 39.5L517 39.5L561.6 88.5Z" fill="#6d2699" stroke="#6d2699"></path><path d="M561.6 88.5L517 39.5L517 164.5Z" fill="#4a1c73" stroke="#4a1c73"></path><path d="M299.3 364L301.9 368.5L385.4 362Z" fill="#401966" stroke="#401966"></path><path d="M383.9 377L403.4 504.5L485 445Z" fill="#55207f" stroke="#55207f"></path><path d="M485 445L492 540L491 448.5Z" fill="#6d2699" stroke="#6d2699"></path><path d="M321.9 239L299.3 364L385.4 362Z" fill="#7929a6" stroke="#7929a6"></path><path d="M419.4 121L364.9 104L370.4 163.5Z" fill="#55207f" stroke="#55207f"></path><path d="M370.4 163.5L304.9 177.5L321.9 239Z" fill="#2c114d" stroke="#2c114d"></path><path d="M381.4 51.5L364.9 104L419.4 121Z" fill="#6d2699" stroke="#6d2699"></path><path d="M350.9 482.5L403.4 504.5L383.9 377Z" fill="#16002a" stroke="#16002a"></path><path d="M492 540L592.6 478.5L565.6 446Z" fill="#55207f" stroke="#55207f"></path><path d="M592.6 478.5L620.1 540L613.1 471.5Z" fill="#2c114d" stroke="#2c114d"></path><path d="M780.3 374.5L783.3 364L670.7 360Z" fill="#55207f" stroke="#55207f"></path><path d="M492 540L565.6 446L491 448.5Z" fill="#16002a" stroke="#16002a"></path><path d="M780.3 374.5L670.7 360L709.7 488.5Z" fill="#7929a6" stroke="#7929a6"></path><path d="M709.7 488.5L670.7 360L613.1 471.5Z" fill="#36155a" stroke="#36155a"></path><path d="M403.4 504.5L492 540L485 445Z" fill="#1b0935" stroke="#1b0935"></path><path d="M708.7 39.5L605.1 39.5L630.1 137Z" fill="#6d2699" stroke="#6d2699"></path><path d="M305.3 137L304.9 177.5L370.4 163.5Z" fill="#55207f" stroke="#55207f"></path><path d="M321.9 239L257.3 313L299.3 364Z" fill="#7929a6" stroke="#7929a6"></path><path d="M783.3 364L800.9 301L690.7 304.5Z" fill="#7929a6" stroke="#7929a6"></path><path d="M772.3 243L786.9 183.5L751.3 182.5Z" fill="#1b0935" stroke="#1b0935"></path><path d="M645.7 540L709.7 488.5L613.1 471.5Z" fill="#401966" stroke="#401966"></path><path d="M582.6 540L620.1 540L592.6 478.5Z" fill="#1b0935" stroke="#1b0935"></path><path d="M816.9 172L786.9 183.5L772.3 243Z" fill="#1b0935" stroke="#1b0935"></path><path d="M751.3 182.5L786.9 183.5L722.7 156Z" fill="#55207f" stroke="#55207f"></path><path d="M301.9 368.5L350.9 482.5L383.9 377Z" fill="#6d2699" stroke="#6d2699"></path><path d="M296.3 481.5L350.9 482.5L301.9 368.5Z" fill="#36155a" stroke="#36155a"></path><path d="M381.4 51.5L349.9 91.5L364.9 104Z" fill="#401966" stroke="#401966"></path><path d="M364.9 104L305.3 137L370.4 163.5Z" fill="#61238c" stroke="#61238c"></path><path d="M620.1 540L645.7 540L613.1 471.5Z" fill="#61238c" stroke="#61238c"></path><path d="M349.9 91.5L305.3 137L364.9 104Z" fill="#7929a6" stroke="#7929a6"></path><path d="M258.3 201.5L257.3 313L321.9 239Z" fill="#401966" stroke="#401966"></path><path d="M258.3 201.5L321.9 239L304.9 177.5Z" fill="#1b0935" stroke="#1b0935"></path><path d="M229.3 375.5L296.3 481.5L301.9 368.5Z" fill="#16002a" stroke="#16002a"></path><path d="M349.9 91.5L247.3 106.5L305.3 137Z" fill="#6d2699" stroke="#6d2699"></path><path d="M487 0L381.4 51.5L419.4 121Z" fill="#230e41" stroke="#230e41"></path><path d="M605.1 39.5L541.6 0L517 39.5Z" fill="#230e41" stroke="#230e41"></path><path d="M517 39.5L487 0L419.4 121Z" fill="#401966" stroke="#401966"></path><path d="M541.6 0L487 0L517 39.5Z" fill="#7929a6" stroke="#7929a6"></path><path d="M238.7 120L258.3 201.5L304.9 177.5Z" fill="#230e41" stroke="#230e41"></path><path d="M605.1 39.5L599.1 0L541.6 0Z" fill="#2c114d" stroke="#2c114d"></path><path d="M708.7 39.5L599.1 0L605.1 39.5Z" fill="#4a1c73" stroke="#4a1c73"></path><path d="M708.7 39.5L630.1 137L717.3 126Z" fill="#7929a6" stroke="#7929a6"></path><path d="M350.9 540L380.4 540L350.9 482.5Z" fill="#6d2699" stroke="#6d2699"></path><path d="M350.9 482.5L380.4 540L403.4 504.5Z" fill="#230e41" stroke="#230e41"></path><path d="M403.4 504.5L380.4 540L492 540Z" fill="#6d2699" stroke="#6d2699"></path><path d="M785.3 30.5L708.7 39.5L717.3 126Z" fill="#61238c" stroke="#61238c"></path><path d="M877.4 194.5L816.9 172L772.3 243Z" fill="#36155a" stroke="#36155a"></path><path d="M786.9 183.5L816.9 172L717.3 126Z" fill="#7929a6" stroke="#7929a6"></path><path d="M761.3 540L776.3 476.5L709.7 488.5Z" fill="#61238c" stroke="#61238c"></path><path d="M709.7 488.5L776.3 476.5L780.3 374.5Z" fill="#6d2699" stroke="#6d2699"></path><path d="M849.4 325.5L800.9 301L783.3 364Z" fill="#230e41" stroke="#230e41"></path><path d="M849.4 325.5L850.4 312L800.9 301Z" fill="#230e41" stroke="#230e41"></path><path d="M229.3 375.5L301.9 368.5L299.3 364Z" fill="#61238c" stroke="#61238c"></path><path d="M177.7 370L234.7 359.5L257.3 313Z" fill="#61238c" stroke="#61238c"></path><path d="M257.3 313L234.7 359.5L299.3 364Z" fill="#1b0935" stroke="#1b0935"></path><path d="M849.4 325.5L855.9 383L857.9 332.5Z" fill="#6d2699" stroke="#6d2699"></path><path d="M800.9 301L877.4 194.5L772.3 243Z" fill="#61238c" stroke="#61238c"></path><path d="M849.4 325.5L783.3 364L855.9 383Z" fill="#7929a6" stroke="#7929a6"></path><path d="M296.3 481.5L350.9 540L350.9 482.5Z" fill="#1b0935" stroke="#1b0935"></path><path d="M177.7 370L229.3 375.5L234.7 359.5Z" fill="#61238c" stroke="#61238c"></path><path d="M234.7 359.5L229.3 375.5L299.3 364Z" fill="#6d2699" stroke="#6d2699"></path><path d="M855.9 383L783.3 364L780.3 374.5Z" fill="#36155a" stroke="#36155a"></path><path d="M849.4 325.5L857.9 332.5L850.4 312Z" fill="#36155a" stroke="#36155a"></path><path d="M877.4 194.5L855.4 146L816.9 172Z" fill="#55207f" stroke="#55207f"></path><path d="M761.3 540L802.9 474.5L776.3 476.5Z" fill="#401966" stroke="#401966"></path><path d="M776.3 476.5L802.9 474.5L780.3 374.5Z" fill="#16002a" stroke="#16002a"></path><path d="M381.4 51.5L307.3 0L349.9 91.5Z" fill="#55207f" stroke="#55207f"></path><path d="M305.3 137L238.7 120L304.9 177.5Z" fill="#1b0935" stroke="#1b0935"></path><path d="M487 0L382.4 0L381.4 51.5Z" fill="#4a1c73" stroke="#4a1c73"></path><path d="M802.9 474.5L855.9 383L780.3 374.5Z" fill="#401966" stroke="#401966"></path><path d="M382.4 0L368.9 0L381.4 51.5Z" fill="#55207f" stroke="#55207f"></path><path d="M863.4 515.5L861.4 382L855.9 383Z" fill="#2c114d" stroke="#2c114d"></path><path d="M855.9 383L861.4 382L857.9 332.5Z" fill="#61238c" stroke="#61238c"></path><path d="M645.7 540L761.3 540L709.7 488.5Z" fill="#6d2699" stroke="#6d2699"></path><path d="M730.3 0L715.7 0L708.7 39.5Z" fill="#16002a" stroke="#16002a"></path><path d="M708.7 39.5L715.7 0L599.1 0Z" fill="#230e41" stroke="#230e41"></path><path d="M307.3 0L247.3 106.5L349.9 91.5Z" fill="#4a1c73" stroke="#4a1c73"></path><path d="M258.3 201.5L196.7 237.5L257.3 313Z" fill="#4a1c73" stroke="#4a1c73"></path><path d="M247.3 106.5L238.7 120L305.3 137Z" fill="#4a1c73" stroke="#4a1c73"></path><path d="M785.3 30.5L730.3 0L708.7 39.5Z" fill="#7929a6" stroke="#7929a6"></path><path d="M238.7 120L196.7 237.5L258.3 201.5Z" fill="#401966" stroke="#401966"></path><path d="M877.4 194.5L800.9 301L850.4 312Z" fill="#61238c" stroke="#61238c"></path><path d="M816.9 172L785.3 30.5L717.3 126Z" fill="#61238c" stroke="#61238c"></path><path d="M877.4 194.5L850.4 312L960 234.5Z" fill="#61238c" stroke="#61238c"></path><path d="M960 308L850.4 312L857.9 332.5Z" fill="#36155a" stroke="#36155a"></path><path d="M855.4 146L785.3 30.5L816.9 172Z" fill="#4a1c73" stroke="#4a1c73"></path><path d="M247.3 106.5L227.7 107.5L238.7 120Z" fill="#401966" stroke="#401966"></path><path d="M238.7 120L227.7 107.5L196.7 237.5Z" fill="#6d2699" stroke="#6d2699"></path><path d="M228.7 0L227.7 107.5L247.3 106.5Z" fill="#36155a" stroke="#36155a"></path><path d="M368.9 0L307.3 0L381.4 51.5Z" fill="#61238c" stroke="#61238c"></path><path d="M166.7 243L177.7 370L257.3 313Z" fill="#401966" stroke="#401966"></path><path d="M161.7 453.5L254.3 540L296.3 481.5Z" fill="#61238c" stroke="#61238c"></path><path d="M296.3 481.5L254.3 540L350.9 540Z" fill="#1b0935" stroke="#1b0935"></path><path d="M227.7 107.5L166.7 243L196.7 237.5Z" fill="#230e41" stroke="#230e41"></path><path d="M196.7 237.5L166.7 243L257.3 313Z" fill="#61238c" stroke="#61238c"></path><path d="M161.7 453.5L296.3 481.5L229.3 375.5Z" fill="#401966" stroke="#401966"></path><path d="M855.4 146L818.9 26.5L785.3 30.5Z" fill="#61238c" stroke="#61238c"></path><path d="M785.3 30.5L852.4 0L730.3 0Z" fill="#61238c" stroke="#61238c"></path><path d="M852.4 0L818.9 26.5L866.9 0Z" fill="#2c114d" stroke="#2c114d"></path><path d="M113.1 321.5L164.1 395L177.7 370Z" fill="#1b0935" stroke="#1b0935"></path><path d="M177.7 370L164.1 395L229.3 375.5Z" fill="#61238c" stroke="#61238c"></path><path d="M847.9 540L863.4 515.5L802.9 474.5Z" fill="#230e41" stroke="#230e41"></path><path d="M802.9 474.5L863.4 515.5L855.9 383Z" fill="#4a1c73" stroke="#4a1c73"></path><path d="M960 312.5L960 308L857.9 332.5Z" fill="#16002a" stroke="#16002a"></path><path d="M761.3 540L847.9 540L802.9 474.5Z" fill="#6d2699" stroke="#6d2699"></path><path d="M136.1 439.5L161.7 453.5L164.1 395Z" fill="#61238c" stroke="#61238c"></path><path d="M164.1 395L161.7 453.5L229.3 375.5Z" fill="#55207f" stroke="#55207f"></path><path d="M960 312.5L857.9 332.5L861.4 382Z" fill="#6d2699" stroke="#6d2699"></path><path d="M960 98L922.4 39.5L855.4 146Z" fill="#401966" stroke="#401966"></path><path d="M960 449L960 312.5L861.4 382Z" fill="#16002a" stroke="#16002a"></path><path d="M307.3 0L228.7 0L247.3 106.5Z" fill="#7929a6" stroke="#7929a6"></path><path d="M93.1 126L107.1 225.5L166.7 243Z" fill="#1b0935" stroke="#1b0935"></path><path d="M960 308L960 234.5L850.4 312Z" fill="#6d2699" stroke="#6d2699"></path><path d="M866.9 0L818.9 26.5L922.4 39.5Z" fill="#7929a6" stroke="#7929a6"></path><path d="M818.9 26.5L852.4 0L785.3 30.5Z" fill="#7929a6" stroke="#7929a6"></path><path d="M166.7 243L113.1 321.5L177.7 370Z" fill="#6d2699" stroke="#6d2699"></path><path d="M108.1 308L113.1 321.5L166.7 243Z" fill="#230e41" stroke="#230e41"></path><path d="M100.6 408L136.1 439.5L164.1 395Z" fill="#7929a6" stroke="#7929a6"></path><path d="M161.7 453.5L184.7 540L254.3 540Z" fill="#230e41" stroke="#230e41"></path><path d="M107.1 225.5L108.1 308L166.7 243Z" fill="#61238c" stroke="#61238c"></path><path d="M113.1 321.5L100.6 408L164.1 395Z" fill="#401966" stroke="#401966"></path><path d="M164.1 540L184.7 540L161.7 453.5Z" fill="#61238c" stroke="#61238c"></path><path d="M93.1 126L166.7 243L227.7 107.5Z" fill="#1b0935" stroke="#1b0935"></path><path d="M922.4 39.5L818.9 26.5L855.4 146Z" fill="#6d2699" stroke="#6d2699"></path><path d="M960 509.5L960 449L863.4 515.5Z" fill="#6d2699" stroke="#6d2699"></path><path d="M863.4 515.5L960 449L861.4 382Z" fill="#230e41" stroke="#230e41"></path><path d="M85.6 540L164.1 540L161.7 453.5Z" fill="#61238c" stroke="#61238c"></path><path d="M847.9 540L915.4 540L863.4 515.5Z" fill="#36155a" stroke="#36155a"></path><path d="M26.6 302.5L100.6 408L113.1 321.5Z" fill="#55207f" stroke="#55207f"></path><path d="M136.1 439.5L85.6 540L161.7 453.5Z" fill="#2c114d" stroke="#2c114d"></path><path d="M26.6 302.5L113.1 321.5L108.1 308Z" fill="#230e41" stroke="#230e41"></path><path d="M960 98L855.4 146L877.4 194.5Z" fill="#1b0935" stroke="#1b0935"></path><path d="M960 234.5L960 98L877.4 194.5Z" fill="#4a1c73" stroke="#4a1c73"></path><path d="M99.1 71.5L93.1 126L227.7 107.5Z" fill="#401966" stroke="#401966"></path><path d="M107.1 225.5L53.6 223.5L108.1 308Z" fill="#36155a" stroke="#36155a"></path><path d="M915.4 540L960 509.5L863.4 515.5Z" fill="#401966" stroke="#401966"></path><path d="M228.7 0L158.1 0L227.7 107.5Z" fill="#1b0935" stroke="#1b0935"></path><path d="M93.1 126L53.6 223.5L107.1 225.5Z" fill="#1b0935" stroke="#1b0935"></path><path d="M158.1 0L99.1 71.5L227.7 107.5Z" fill="#36155a" stroke="#36155a"></path><path d="M93.1 126L0 155L53.6 223.5Z" fill="#7929a6" stroke="#7929a6"></path><path d="M915.4 540L960 540L960 509.5Z" fill="#7929a6" stroke="#7929a6"></path><path d="M960 98L960 29.5L922.4 39.5Z" fill="#7929a6" stroke="#7929a6"></path><path d="M922.4 39.5L960 0L866.9 0Z" fill="#401966" stroke="#401966"></path><path d="M99.1 71.5L74.6 113L93.1 126Z" fill="#16002a" stroke="#16002a"></path><path d="M0 206.5L32.6 231L53.6 223.5Z" fill="#2c114d" stroke="#2c114d"></path><path d="M53.6 223.5L26.6 302.5L108.1 308Z" fill="#36155a" stroke="#36155a"></path><path d="M960 29.5L960 0L922.4 39.5Z" fill="#55207f" stroke="#55207f"></path><path d="M32.6 231L26.6 302.5L53.6 223.5Z" fill="#4a1c73" stroke="#4a1c73"></path><path d="M62.6 510.5L85.6 540L136.1 439.5Z" fill="#2c114d" stroke="#2c114d"></path><path d="M62.6 510.5L136.1 439.5L100.6 408Z" fill="#7929a6" stroke="#7929a6"></path><path d="M0 419L62.6 510.5L100.6 408Z" fill="#6d2699" stroke="#6d2699"></path><path d="M0 268L0 300.5L26.6 302.5Z" fill="#16002a" stroke="#16002a"></path><path d="M26.6 302.5L0 419L100.6 408Z" fill="#4a1c73" stroke="#4a1c73"></path><path d="M0 268L26.6 302.5L32.6 231Z" fill="#55207f" stroke="#55207f"></path><path d="M0 206.5L0 268L32.6 231Z" fill="#1b0935" stroke="#1b0935"></path><path d="M0 155L93.1 126L74.6 113Z" fill="#1b0935" stroke="#1b0935"></path><path d="M0 155L0 206.5L53.6 223.5Z" fill="#4a1c73" stroke="#4a1c73"></path><path d="M0 300.5L0 419L26.6 302.5Z" fill="#16002a" stroke="#16002a"></path><path d="M39.6 32.5L74.6 113L99.1 71.5Z" fill="#55207f" stroke="#55207f"></path><path d="M0 47.5L0 155L74.6 113Z" fill="#7929a6" stroke="#7929a6"></path><path d="M158.1 0L39.6 32.5L99.1 71.5Z" fill="#230e41" stroke="#230e41"></path><path d="M0 419L0 499.5L62.6 510.5Z" fill="#6d2699" stroke="#6d2699"></path><path d="M62.6 510.5L0 540L85.6 540Z" fill="#4a1c73" stroke="#4a1c73"></path><path d="M158.1 0L27.6 0L39.6 32.5Z" fill="#401966" stroke="#401966"></path><path d="M39.6 32.5L0 47.5L74.6 113Z" fill="#4a1c73" stroke="#4a1c73"></path><path d="M0 0L0 47.5L39.6 32.5Z" fill="#55207f" stroke="#55207f"></path><path d="M0 499.5L0 540L62.6 510.5Z" fill="#16002a" stroke="#16002a"></path><path d="M27.6 0L0 0L39.6 32.5Z" fill="#6d2699" stroke="#6d2699"></path></g></svg>